PathFileType	4	(X/Y/Z)	OpenSim_Sub10_CSStiffKnee_Accel.trc
DataRate	CameraRate	NumFrames	NumMarkers	Units	OrigDataRate	OrigDataStartFrame	OrigNumFrames
100	100	34	8	m	100	1022	8174
Frame#	Time	torso_imu_offset_imu	pelvis_imu_offset_imu	tibia_r_imu_offset_imu	femur_r_imu_offset_imu	tibia_l_imu_offset_imu	femur_l_imu_offset_imu	toes_r_imu_offset_imu	toes_l_imu_offset_imu
				X1	Y1	Z1	X2	Y2	Z2	X3	Y3	Z3	X4	Y4	Z4	X5	Y5	Z5	X6	Y6	Z6	X7	Y7	Z7	X8		Y8	Z8	

1022	10.21000000	10.20183711	0.18235370	4.47150003	9.04196824	-1.97342718	1.73874771	6.68815303	5.15620328	-0.38875970	5.78949482	-9.32641326	-0.32496536	10.66465933	-1.94158545	0.65643207	10.35773387	0.51188790	-1.83452904	23.20533240	5.50927190	-30.37780322	5.73366299	0.05221931	11.20547992
1023	10.22000000	10.69793707	0.16520307	4.85201156	9.38368835	-1.67361185	2.64273549	8.82230950	3.37339212	0.68967019	5.63846193	-7.95774413	0.71925345	10.83723729	-2.03552775	0.65956587	10.36718770	1.14549337	-2.27318668	20.14867161	6.70020149	-7.99731013	5.85250268	-0.41986276	11.00864764
1024	10.23000000	11.45742570	0.01786507	5.27629147	10.34578290	-1.02775812	4.93141206	12.92122010	2.61591961	-1.69242833	6.70325795	-6.79540989	3.15246058	11.31038662	-2.32175349	0.99775812	10.45055441	1.93926760	-2.87736094	23.22291086	6.41587294	29.29374540	5.50330126	-0.42178554	11.52204752
1025	10.24000000	13.19067613	-0.48918301	6.38647450	11.58291838	0.20163142	9.12656853	18.52490802	1.15564972	-2.44107617	11.85883428	-6.76940936	3.02264264	12.41459363	-1.91960000	0.66678418	10.84205956	2.32385294	-3.03176729	7.38515572	13.94055737	21.27617678	4.93546009	-0.27718684	12.35705787
1026	10.25000000	15.62965867	-1.16689175	7.17672609	12.63629414	1.23975169	9.54926244	27.80546115	-4.56282551	12.63637625	19.88203069	-9.62147470	-0.72868872	14.04717131	-0.37406771	1.20369692	11.95380452	2.73765020	-2.85575698	24.08034062	-6.93564062	18.49752135	4.81399409	0.56260577	12.23187423
1027	10.26000000	15.44395813	-1.36156853	6.23081363	14.62702934	2.44549887	7.11138580	28.24215569	-11.63159633	9.49544017	24.08459308	-8.55310575	-2.86582263	14.20530778	0.75867562	2.55304141	12.83615604	1.89858941	-2.59636157	17.98407955	-11.05678567	9.58039508	5.11259593	0.88284573	11.67456995
1028	10.27000000	13.89601744	-1.52802068	5.07451967	17.09883356	5.18096345	6.27999887	17.09089186	-7.71313133	1.36817614	23.32095762	-3.40842722	-4.12382589	12.69300357	0.78919009	2.13014113	13.08945835	0.64240455	-2.60979196	2.98117745	11.66493725	13.25061240	5.44427080	0.75195032	11.67193715
1029	10.28000000	13.39459331	-2.22144134	4.77336941	16.35398174	5.78025087	6.25754376	5.67965126	3.26417334	1.75457419	17.61203337	0.59564573	-3.46807292	12.18367259	0.59246373	2.05787463	13.35810390	-0.40798224	-2.66871940	11.56174308	-0.96103968	9.39133403	6.14644959	2.02690772	12.84214877
1030	10.29000000	13.36492679	-2.92677314	4.87505339	13.39542696	4.05504281	6.30533747	-0.82733807	13.54047490	-3.37400477	11.03568416	2.91595853	-0.14095556	12.40097860	0.17521808	3.01728766	13.53856677	-1.12846958	-2.40740909	8.88687689	0.25303886	6.40785677	6.56321081	2.33190957	12.28804444
1031	10.30000000	13.96473396	-3.72025227	4.83749917	11.58580508	2.40418483	6.50338699	-0.65962021	18.96716555	-8.09062710	6.87842417	3.73190689	1.12392761	12.12577821	-0.21657779	2.79693741	13.21785417	-1.36795147	-2.20900594	6.68251096	1.75295493	8.96744412	7.81138101	3.76172102	11.97054053
1032	10.31000000	14.53716121	-4.43370423	4.75831569	10.66734676	1.20411123	6.74983900	4.66195038	19.64217714	-8.25060711	4.53578300	4.38592099	0.78096146	12.03703915	0.55156211	2.53819681	12.72209791	-1.35551420	-2.06999257	6.95461957	-2.31854836	7.60132708	10.31031952	3.86544181	12.29171342
1033	10.32000000	14.41811594	-4.29187336	4.95680408	10.05668241	0.52386222	6.85205291	10.33169185	16.89911583	-2.77042937	4.71224074	5.79749935	0.19373196	12.35552971	1.32427629	3.33980316	12.40282894	-1.16398001	-1.39097297	6.69299889	-0.32639846	8.91078592	12.02815924	1.74183184	11.19118341
1034	10.33000000	13.69674471	-3.45105234	5.06120856	9.80549823	0.29839924	6.80550954	13.03933372	10.99473497	2.28389103	7.19819629	6.47933025	-0.91089063	12.21056985	1.44612796	3.51741127	11.58418355	-0.62563982	-0.73220727	6.06366230	-0.87439641	8.55973399	12.89920784	6.78389462	13.65880514
1035	10.34000000	12.42666685	-2.54674497	5.10933542	9.84237568	0.41146399	6.77090536	13.05120013	4.92164570	1.46813995	10.63909534	5.60379034	-1.96440885	11.54329440	2.04992195	1.88071256	10.54043262	-0.45323961	-0.24278754	5.73284164	0.30126413	9.17637607	8.90834338	6.53756858	12.62206946
1036	10.35000000	11.18439401	-1.79846642	4.85896575	9.83456770	0.64529946	6.77083710	12.84008115	1.84218914	0.61095276	13.69062346	4.41444332	-2.77883111	11.12837835	3.08262197	0.60610228	9.88753051	-0.32225642	-0.04101773	5.34922803	0.59243058	9.15475398	13.77747187	-0.57138497	12.97088630
1037	10.36000000	10.19545242	-1.36945700	4.45596430	9.62995763	1.01558013	6.71379961	13.02666678	1.31949378	0.65670260	15.36019787	2.72649857	-2.98500980	11.01913367	2.22036506	1.21270293	9.29355499	-0.09479083	0.02704181	5.15997442	0.72724225	9.38868255	14.02639138	1.34262827	13.10875586
1038	10.37000000	9.26154355	-1.29114281	4.19390505	9.12741768	1.36775233	6.42949863	12.33451209	1.08697419	-0.56272973	14.52402495	0.19478612	-2.43315566	10.00209662	-1.35505729	1.18301932	8.85715281	-0.08793297	0.27856147	5.11589492	0.26599210	9.28420961	11.61231543	3.06627449	11.50032672
1039	10.38000000	8.45455424	-1.38449602	4.08284828	8.41762599	1.77789452	6.00501451	10.52092702	1.82639449	0.40079030	12.27056967	-2.33579552	-1.52207259	8.80788921	-5.43261755	0.40339271	8.91377088	0.29693245	0.56004959	5.04595330	-0.34997353	8.66500782	5.50585483	4.61232893	18.24830648
1040	10.39000000	7.79398056	-1.60517056	4.02937683	7.57521912	2.06917748	5.47541669	8.67625502	2.85832805	1.30538527	10.30034919	-4.13575995	-0.77464350	8.01931476	-9.16813807	-1.52477557	9.73220809	0.42479369	1.04252299	4.92270568	-0.59300502	8.50101608	1.52137631	2.19382616	21.99368253
1041	10.40000000	7.36710626	-1.89633518	3.91393223	6.78063727	2.25296754	5.05817054	7.24070136	2.36155857	1.30721899	8.74283964	-5.38190282	-0.05551799	6.44055717	-12.03163652	-2.93565389	10.44422978	0.56190525	1.35269066	5.09020769	0.15476162	8.64454972	-5.14028740	2.00294985	19.22104979
1042	10.41000000	7.08267402	-2.23419585	3.84011341	6.25192217	2.32596035	4.74522062	7.59316408	1.55694939	1.72717986	7.76503185	-5.85126508	0.75912208	4.04936353	-11.59400030	-1.59072516	11.45667446	0.73810988	1.30082839	4.90799349	0.77322975	8.80430481	-6.35274859	4.91907101	19.84276009
1043	10.42000000	6.98584698	-2.43327108	3.78723646	6.08525093	2.34891333	4.40622815	10.20214842	1.67925914	1.72472844	7.37577359	-5.19768979	0.96631039	1.55477155	-10.18842612	-0.17465749	11.34613832	0.46786579	0.76001567	4.58411394	0.42302217	9.02765002	-2.80244210	3.20233112	20.78206011
1044	10.43000000	6.95939523	-2.33106022	3.73127612	5.98050378	2.40235967	4.19178214	12.24073815	2.57786586	0.90060694	7.27816016	-3.88864923	0.56551288	-0.23904307	-9.87878064	0.64236522	10.33682097	0.12158537	0.09203038	4.46719362	-0.15739033	9.10929487	-4.38365192	1.12460764	19.02611279
1045	10.44000000	6.89936339	-2.13742750	3.68847329	5.82795070	2.48805919	4.15469679	11.45161773	2.88722041	-0.09775458	7.18034010	-2.39934987	0.11832681	-0.92962353	-8.42482985	0.97153573	8.98061404	-1.55364794	-0.25174501	4.93400483	-0.39118837	8.66195963	-4.71205568	0.09323176	17.09836627
1046	10.45000000	6.79757404	-1.82294368	3.83723962	5.68927851	2.51080313	4.19179859	9.27798433	1.41116427	-0.09572362	7.33148111	-1.07787187	-0.21817263	-0.04461749	-6.09077382	1.03194105	8.40592698	-2.12794881	-0.58703869	5.23975942	-0.41681140	8.47498338	-3.50246455	-0.48203987	15.75915243
1047	10.46000000	6.81077698	-1.33466883	4.07840002	5.58983786	2.43891157	4.22918130	8.33346637	-0.43088479	0.34221086	7.59964219	0.00425376	-0.66532667	1.91890615	-4.21809768	1.42366211	8.20685791	-2.70177262	-0.54408194	5.13571156	-0.34610262	8.48322140	-1.63869316	-0.60449156	14.91985595
1048	10.47000000	6.91451124	-0.82491365	4.08502351	5.58821560	2.39187927	4.28413783	8.83519363	-1.23451775	0.30036776	7.89637174	0.85469541	-0.84578846	3.87482298	-2.90928219	1.56047090	7.34663100	-2.86280700	-0.51749540	4.96574028	-0.26620020	8.50000313	0.04324836	-0.50819071	13.94663804
1049	10.48000000	6.85283307	-0.53971095	3.96850309	5.83266252	2.36887543	4.41638584	9.61154632	-1.11217798	0.32330557	8.36477152	1.18654837	-0.63115254	5.53407943	-1.70529899	1.79133628	6.74969191	-2.18750603	-0.58542257	4.97686510	-0.37442290	8.53896782	1.03273254	-0.20864876	12.83812060
1050	10.49000000	6.80038361	-0.61144131	3.91273611	6.22422301	2.35132613	4.54453424	10.15707683	-0.80564690	0.72591694	8.76129074	1.18137665	-0.45628596	7.01695025	-0.65220794	2.43218030	7.10589473	-1.74022440	-0.51721590	5.09393689	-0.40503597	8.55487054	1.92663266	-0.11012074	11.81807631
1051	10.50000000	6.89010654	-0.91357156	3.99421508	6.60337456	2.29936918	4.58479366	10.20414756	-0.88712399	0.77533726	8.77759814	1.10591410	-0.16305656	8.08229680	0.21149806	2.70284907	7.50849213	-1.20831677	-0.38862530	4.98724352	-0.27904763	8.69989966	3.04323494	0.07629850	11.01347319
1052	10.51000000	7.12726854	-1.30809345	4.05391592	6.93278831	2.14039688	4.62300314	9.99725382	-1.09082201	0.50088643	8.56231686	0.92632277	0.18317403	8.56479703	1.04275878	2.88863007	7.60779304	-0.68094818	-0.18772920	5.02927404	-0.22558322	8.70067692	4.20353492	0.65594745	10.28571888
1053	10.52000000	7.45908775	-1.53293178	4.13903609	7.21723223	2.00326515	4.66848949	9.84693440	-1.09720618	0.24465910	8.41956169	0.68217447	0.35987562	8.78604742	1.40606769	3.45529736	7.78983719	-0.19504693	0.15957343	5.06522836	-0.34332094	8.58222899	5.39182466	1.01411340	10.13511763
1054	10.53000000	7.85495629	-1.56806463	4.25613423	7.31310259	1.88751583	4.72848957	9.62640179	-1.03921802	0.13823644	8.50957633	0.45194137	0.17936803	9.11822226	1.08419235	3.79879849	7.98326153	0.29018313	0.50897224	5.47470580	-0.53696698	8.34787061	6.67536934	0.51360974	10.18194011
1055	10.54000000	8.32908478	-1.54176367	4.32627990	7.36690610	1.87100134	4.81592422	9.40828532	-1.07766274	-0.03810456	8.74835537	0.16082496	-0.21156812	9.83938623	0.56778780	3.27235628	8.09059981	0.73994682	0.71418862	5.52337255	-0.44028317	8.31287361	6.96239663	0.50114006	10.09443233
